<?xml version="1.0" encoding="utf-8" ?><svg xmlns="http://www.w3.org/2000/svg" xmlns:xlink="http://www.w3.org/1999/xlink" width="512" height="286" viewBox="0 0 512 286"><path transform="scale(0.703297 0.704434)" d="M367.671 78.0895C368.974 73.4121 379.648 38.2173 381.422 36.3502C385.364 34.6002 423.754 35.0828 429.591 35.6841C432.974 36.0325 436.14 37.838 439.522 38.0506C445.996 38.4576 480.178 39.4016 484.087 40.9203C485.39 41.4265 486.286 43.4782 486.812 44.6974C487.918 47.2594 488.524 50.0966 488.395 52.8912C488.049 60.4093 482.744 75.1088 479.842 82.2739L479.756 82.484C478.056 82.9536 476.257 83.5094 474.517 83.735C475.225 85.287 476.774 91.0754 477.96 91.5175C478.009 91.536 478.064 91.5379 478.116 91.5481C481.361 93.1719 478.838 94.1355 480.828 93.7461C485.594 94.4335 488.095 94.4097 492.923 94.1402C494.887 94.2312 495.424 94.1487 497.376 93.7923L498.123 93.5872L497.474 92.8879L497.591 92.3173C504.074 92.9049 510.534 92.5726 516.977 93.0669C523.363 93.5567 551.567 97.1623 554.571 100.91C556.839 103.739 558.919 107.951 558.439 111.669C557.786 116.716 553.836 120.746 554.715 126.15C557.871 126.771 558.594 122.166 560.558 120.852C570.845 113.969 583.115 112.69 595.165 114.077C609.35 115.283 619.887 121.293 628.844 132.229C638.199 143.65 640.972 156.313 639.668 170.929C638.621 182.659 632.268 192.621 623.617 200.429C619.508 204.138 614.931 202.07 611.608 203.563C617.881 204.049 622.71 203.89 628.819 203.617C639.812 203.127 648.34 204.369 659.079 201.289C663.814 199.931 676.585 199.918 681.471 201.4C685.475 207.339 688.888 213.929 692.739 220.061C692.453 220.938 691.968 221.855 692.582 222.604C696.687 227.62 701.192 230.491 705.311 235.804C701.883 243.424 694.833 246.464 689.649 252.229C688.276 253.756 686.87 259.891 685.539 261.806C683.632 266.945 674.3 288.006 675.161 291.716C675.207 291.914 675.234 292.116 675.272 292.316C675.3 292.456 675.328 292.597 675.358 292.737C674.006 294.064 672.949 293.159 671.865 294.213C672.621 294.4 672.676 294.365 673.427 294.328L673.933 294.915C673.813 296.251 673.534 296.513 674.16 297.388C674.434 296.44 674.622 295.67 674.835 294.709L675.561 294.309C677.057 295.188 677.352 296.884 677.785 298.561C677.863 298.852 677.936 299.145 678.002 299.44C676.822 304.103 674.791 305.593 672.903 309.968C671.775 312.582 671.057 315.438 669.728 317.828C669.137 321.843 669.059 325.719 668.491 329.595C667.913 333.545 666.102 339.01 664.785 342.828C657.999 340.222 650.318 335.816 646.098 329.734C646.212 323.38 642.728 321.752 642.155 318.156C641.429 316.58 640.02 312.966 639.11 311.877C638.379 311.869 636.369 313.743 635.608 314.355C631.513 317.66 627.185 320.663 622.656 323.342C620.182 324.823 597.124 330.443 594.271 328.272C594.268 327.643 594.308 327.145 594.127 326.541C592.32 326.188 588.546 326.351 586.537 326.38C582.287 326.873 577.343 326.488 573.04 326.638C562.206 327.016 550.162 326.2 539.453 326.56C535.371 326.681 531.342 326.256 527.295 326.234C524.203 326.217 520.633 326.458 517.52 326.614C506.71 326.746 495.898 326.661 485.091 326.36C479.67 326.258 474.011 326.61 468.659 325.678C466.808 325.356 466.141 324.786 464.927 323.423C463.102 320.628 463.429 317.977 459.72 318.245C452.457 322.172 442.616 322.362 434.374 324.015C430.213 325.334 424.039 325.48 419.629 325.69C416.43 325.843 409.165 324.849 406.484 326.105L405.854 327.999C404.108 333.752 406.442 339.74 403.159 345.654C402.26 345.743 401.223 345.906 400.348 345.774C398.947 342.828 398.016 339.447 397.333 336.267C397.954 335.221 398.555 333.708 399.051 332.56C398.329 330.228 397.692 328.325 397.281 325.906C396.294 323.217 395.097 317.964 393.335 316.302C392.16 316.078 392.275 316.344 390.998 317.199C388.632 319.305 387.885 320.429 385.868 322.479C382.075 326.333 375.299 327.806 369.931 327.742C368.875 329.608 368.434 330.281 367.8 332.38C366.712 335.982 368.574 341.933 365.447 344.043C361.435 344.46 357.134 337.576 354.88 334.973C353.14 332.964 347.613 330.578 345.105 329.369C343.119 328.78 340.533 328.288 338.472 327.836C331.115 327.7 323.674 327.124 316.496 328.793C311.638 329.923 309.328 332.293 304.804 334.388L267.922 351.717C263.422 353.831 259.485 356.263 254.861 358.096C260.245 350.899 264.267 343.157 269.618 336.118C272.96 331.724 278.406 327.244 281.825 322.744C284.839 318.777 289.047 310.31 292.454 307.101C296.652 301.642 294.371 302.263 301.303 297.732C303.297 293.274 304.798 288.658 306.549 284.096C308.48 279.067 310.619 274.088 312.468 269.035C312.116 267.055 308.072 269.86 311.226 260.689C311.768 256.3 315.072 251.782 315.322 248.264C315.698 242.959 314.172 238.989 317.128 233.392C317.231 233.197 317.534 230.458 317.764 229.681C319.515 229.206 323.729 228.741 325.704 228.476C326.168 226.57 328.58 220.851 329.411 218.75C329.684 217.316 330.162 216.503 330.147 214.93C329.495 213.528 329.353 213.743 327.941 212.703L327.495 212.489C323.02 217.274 310.716 226.96 305.036 229.765C291.914 236.244 276.406 241.324 262.632 246.361C254.462 249.368 246.251 252.262 238.001 255.042C233.444 256.608 226.862 259.095 222.361 259.841C218.818 258.522 215.248 257.014 212.29 254.589C211.998 252.077 212.026 251.167 212.164 248.696C209.459 250.907 207.545 253.214 205.045 255.596C192.311 267.729 177.373 277.343 163.264 287.777C159.108 290.851 154.25 293.597 149.942 296.563C123.409 314.858 96.5421 332.663 69.3546 349.97C57.9715 357.257 47.1622 365.77 35.2496 372.171C33.0488 373.354 22.8268 372.327 21.2278 370.661C20.4396 368.355 27.2771 349.075 28.4412 345.429L46.0487 291.081C49.2383 281.178 51.8224 270.879 55.285 261.022C55.7939 259.574 56.1733 258.407 56.8461 257.003C63.3986 252.17 71.4538 249.681 78.3565 245.38C79.1174 244.906 80.1315 244.22 80.8929 243.825C81.3302 242.15 81.3897 242.117 79.9962 241.32C75.9708 242.429 68.7297 240.018 65.2833 238.083C65.7514 232.05 69.0472 225.177 70.8084 219.205C76.91 198.517 84.1704 178.191 90.0879 157.454C90.7256 155.126 92.1401 153.203 93.4382 151.157C94.2893 144.234 97.5904 134.718 99.7994 128.037L107.604 104.193C110.33 95.7481 112.925 86.0075 116.392 77.8907C117.302 75.7614 120.79 74.2527 123.007 73.3356C147.972 63.008 174.187 55.5761 200.419 49.2327C202.562 48.7145 209.48 46.8077 211.577 47.4465C212.628 47.7669 213.334 50.2405 213.691 51.3013C214.947 50.5134 215.983 49.4001 217.041 48.3538C219.767 43.539 231.021 43.9594 236.122 43.1191C243.579 41.8905 251.267 41.3168 258.76 40.2527C262.875 39.9634 282.435 38.8793 284.818 39.5775C286.105 40.6429 286.755 43.2487 287.465 44.9373C290.6 52.3942 285.562 60.3326 283.799 67.3488C283.121 70.05 276.453 88.9074 276.925 90.4178C278.67 91.2058 290.732 87.5537 293.738 87.0164C317.881 82.7015 343.267 79.855 367.671 78.0895ZM491.634 217.538C491.122 219.961 489.934 222.252 489.062 224.584C486.552 231.29 483.675 237.009 482.292 244.089C486.071 244.224 488.592 243.569 491.531 243.578C493.189 243.771 494.904 243.997 496.562 244.134C498.488 244.329 500.533 244.263 501.774 245.751C502.407 248.108 499.636 250.026 500.829 252.809L501.01 253.079C501.862 255.585 503.157 256.743 505.286 254.596L505.296 254.179C506.082 253.572 505.928 253.764 507.091 253.643C506.807 254.764 506.449 256.376 506.095 257.43C505.474 258.391 505.634 257.95 505.559 259.159C504.147 259.099 504.091 257.917 502.324 258.054C501.187 258.512 499.917 259.714 499.772 260.983C501.557 263.615 525.71 266.45 520.313 258.332C518.175 257.654 516.757 259.936 515.32 258.567C518.066 250.112 520.915 241.691 523.869 233.306C525.811 227.806 528.235 221.444 529.854 215.895C530.755 211.892 532.32 208.153 533.302 203.975C540.357 203.152 545.087 203.764 552.02 203.886C560.534 204.001 569.05 204.015 577.566 203.926C580.452 203.888 586.332 203.92 588.933 203.54L585.387 202.894C583.59 199.851 582.662 196.574 581.002 194.009L580.836 194.111C577.508 196.182 575.359 199.14 572.874 200.889C568.937 203.658 555.914 203.323 551.088 202.55C546.088 201.75 541.909 197.003 539.26 192.958C537.038 189.566 536.877 184.945 534.259 183.807C532.167 184.527 531.924 188.445 530.595 190.197C525.981 196.279 519.134 201.478 511.995 204.221C505.669 206.505 492.553 209.816 485.824 210.318L485.015 210.851L485.103 211.457C486.628 212.423 491.439 212.889 493.438 213.153C492.312 215.047 492.12 215.414 491.634 217.538Z"/><path fill="#FBF8FA" fill-opacity="0.89803922" transform="scale(0.703297 0.704434)" d="M515.32 258.567C516.757 259.936 518.175 257.654 520.313 258.332C525.71 266.45 501.557 263.615 499.772 260.983C499.917 259.714 501.187 258.512 502.324 258.054C504.091 257.917 504.147 259.099 505.559 259.159C505.634 257.95 505.474 258.391 506.095 257.43C507.271 259.681 513.172 259.177 515.32 258.567Z"/><path fill="#FBF8FA" fill-opacity="0.84705883" transform="scale(0.703297 0.704434)" d="M501.01 253.079C502.459 253.161 505.869 253.246 507.091 253.643C505.928 253.764 506.082 253.572 505.296 254.179L505.286 254.596C503.157 256.743 501.862 255.585 501.01 253.079Z"/><path fill="#BE2234" fill-opacity="0.1254902" transform="scale(0.703297 0.704434)" d="M491.531 243.578C492.285 243.525 493.444 243.511 494.109 243.277L492.834 242.734L493.034 242.293C494.27 241.949 494.435 241.904 495.672 242.214C496.523 243.622 494.888 242.817 496.562 244.134C494.904 243.997 493.189 243.771 491.531 243.578Z"/><path fill="#FBF8FA" transform="scale(0.703297 0.704434)" d="M429.651 199.908C431.488 198.709 434.122 195.922 436.594 194.161C435.752 196.092 434.964 198.046 434.234 200.023C437.421 200.095 440.607 200.215 443.79 200.382C442.988 202.667 441.622 205.529 442.262 207.791C443.995 209.535 448.675 209.176 451.542 209.323C452.561 206.214 453.58 202.794 455.029 199.888C457.139 199.24 461.741 200.597 462.739 198.439C468.416 198.635 472.892 198.569 478.613 198.35C477.688 198.943 477.369 199.134 476.265 199.174C479.901 199.953 483.97 199.272 486.787 199.927C487.427 201.623 484.661 207.861 483.95 210.114C484.183 210.138 485.692 210.279 485.824 210.318L485.015 210.851L485.103 211.457C486.628 212.423 491.439 212.889 493.438 213.153C492.312 215.047 492.12 215.414 491.634 217.538C491.122 219.961 489.934 222.252 489.062 224.584C486.552 231.29 483.675 237.009 482.292 244.089C486.071 244.224 488.592 243.569 491.531 243.578C493.189 243.771 494.904 243.997 496.562 244.134C498.488 244.329 500.533 244.263 501.774 245.751C502.407 248.108 499.636 250.026 500.829 252.809L501.01 253.079C501.862 255.585 503.157 256.743 505.286 254.596L505.296 254.179C506.082 253.572 505.928 253.764 507.091 253.643C506.807 254.764 506.449 256.376 506.095 257.43C505.474 258.391 505.634 257.95 505.559 259.159C504.147 259.099 504.091 257.917 502.324 258.054C501.187 258.512 499.917 259.714 499.772 260.983C501.557 263.615 525.71 266.45 520.313 258.332C518.175 257.654 516.757 259.936 515.32 258.567C518.066 250.112 520.915 241.691 523.869 233.306C525.811 227.806 528.235 221.444 529.854 215.895C530.755 211.892 532.32 208.153 533.302 203.975C540.357 203.152 545.087 203.764 552.02 203.886C560.534 204.001 569.05 204.015 577.566 203.926C580.452 203.888 586.332 203.92 588.933 203.54L589.348 203.206C591.409 203.38 591.963 203.206 594.041 202.784C595.99 203.814 608.294 203.366 611.608 203.563C617.881 204.049 622.71 203.89 628.819 203.617C639.812 203.127 648.34 204.369 659.079 201.289C663.814 199.931 676.585 199.918 681.471 201.4C685.475 207.339 688.888 213.929 692.739 220.061C692.453 220.938 691.968 221.855 692.582 222.604C696.687 227.62 701.192 230.491 705.311 235.804C701.883 243.424 694.833 246.464 689.649 252.229C688.276 253.756 686.87 259.891 685.539 261.806C683.632 266.945 674.3 288.006 675.161 291.716C675.207 291.914 675.234 292.116 675.272 292.316C675.3 292.456 675.328 292.597 675.358 292.737C674.006 294.064 672.949 293.159 671.865 294.213C672.621 294.4 672.676 294.365 673.427 294.328L673.933 294.915C673.813 296.251 673.534 296.513 674.16 297.388C674.434 296.44 674.622 295.67 674.835 294.709L675.561 294.309C677.057 295.188 677.352 296.884 677.785 298.561C677.863 298.852 677.936 299.145 678.002 299.44C676.822 304.103 674.791 305.593 672.903 309.968C671.775 312.582 671.057 315.438 669.728 317.828C669.137 321.843 669.059 325.719 668.491 329.595C667.913 333.545 666.102 339.01 664.785 342.828C657.999 340.222 650.318 335.816 646.098 329.734C646.212 323.38 642.728 321.752 642.155 318.156C641.429 316.58 640.02 312.966 639.11 311.877C638.379 311.869 636.369 313.743 635.608 314.355C631.513 317.66 627.185 320.663 622.656 323.342C620.182 324.823 597.124 330.443 594.271 328.272C594.268 327.643 594.308 327.145 594.127 326.541C592.32 326.188 588.546 326.351 586.537 326.38C582.287 326.873 577.343 326.488 573.04 326.638C562.206 327.016 550.162 326.2 539.453 326.56C535.371 326.681 531.342 326.256 527.295 326.234C524.203 326.217 520.633 326.458 517.52 326.614C506.71 326.746 495.898 326.661 485.091 326.36C479.67 326.258 474.011 326.61 468.659 325.678C466.808 325.356 466.141 324.786 464.927 323.423C463.102 320.628 463.429 317.977 459.72 318.245C452.457 322.172 442.616 322.362 434.374 324.015C430.213 325.334 424.039 325.48 419.629 325.69C416.43 325.843 409.165 324.849 406.484 326.105L405.854 327.999C404.108 333.752 406.442 339.74 403.159 345.654C402.26 345.743 401.223 345.906 400.348 345.774C398.947 342.828 398.016 339.447 397.333 336.267C397.954 335.221 398.555 333.708 399.051 332.56C398.329 330.228 397.692 328.325 397.281 325.906C396.294 323.217 395.097 317.964 393.335 316.302C392.16 316.078 392.275 316.344 390.998 317.199C388.632 319.305 387.885 320.429 385.868 322.479C382.075 326.333 375.299 327.806 369.931 327.742C368.875 329.608 368.434 330.281 367.8 332.38C366.712 335.982 368.574 341.933 365.447 344.043C361.435 344.46 357.134 337.576 354.88 334.973C353.14 332.964 347.613 330.578 345.105 329.369C343.119 328.78 340.533 328.288 338.472 327.836C331.115 327.7 323.674 327.124 316.496 328.793C311.638 329.923 309.328 332.293 304.804 334.388L267.922 351.717C263.422 353.831 259.485 356.263 254.861 358.096C260.245 350.899 264.267 343.157 269.618 336.118C272.96 331.724 278.406 327.244 281.825 322.744C284.839 318.777 289.047 310.31 292.454 307.101C296.652 301.642 294.371 302.263 301.303 297.732C303.297 293.274 304.798 288.658 306.549 284.096C308.48 279.067 310.619 274.088 312.468 269.035C312.116 267.055 308.072 269.86 311.226 260.689C311.768 256.3 315.072 251.782 315.322 248.264C315.698 242.959 314.172 238.989 317.128 233.392C317.231 233.197 317.534 230.458 317.764 229.681C319.515 229.206 323.729 228.741 325.704 228.476C326.168 226.57 328.58 220.851 329.411 218.75C329.684 217.316 330.162 216.503 330.147 214.93C329.495 213.528 329.353 213.743 327.941 212.703C329.044 210.895 329.173 208.076 330.373 205.713C338.569 206.118 348.025 205.654 356.552 205.947C357.892 203.161 358.407 201.291 359.121 198.336C368.502 197.704 388.789 197.832 398.191 198.311C397.696 199.652 397.522 200.167 397.255 201.574L397.685 202.19C396.609 203.281 396.087 203.647 396.691 205.005C399.125 206.358 404.473 205.814 407.32 205.585C408.616 203.612 409.23 202.273 410.226 200.159C415.666 200.332 424.383 200.372 429.651 199.908Z"/><path fill="#D41A21" transform="scale(0.703297 0.704434)" d="M429.651 199.908C431.488 198.709 434.122 195.922 436.594 194.161C435.752 196.092 434.964 198.046 434.234 200.023C437.421 200.095 440.607 200.215 443.79 200.382C442.988 202.667 441.622 205.529 442.262 207.791C443.995 209.535 448.675 209.176 451.542 209.323C452.561 206.214 453.58 202.794 455.029 199.888C457.139 199.24 461.741 200.597 462.739 198.439C468.416 198.635 472.892 198.569 478.613 198.35C477.688 198.943 477.369 199.134 476.265 199.174C479.901 199.953 483.97 199.272 486.787 199.927C487.427 201.623 484.661 207.861 483.95 210.114C482.481 210.533 482.009 210.581 480.478 210.703L479.994 210.208C480.734 208.14 481.452 206.061 482.296 204.033C474.026 203.92 465.158 203.769 456.908 204.035C455.898 207.339 454.125 212.735 452.708 215.956C448.226 215.88 443.743 215.877 439.261 215.947C438.54 218.773 437.85 221.103 436.618 223.772C434.929 223.864 433.417 223.962 431.718 223.898C432.861 218.999 436.954 209.072 438.913 204.047C430.402 203.818 420.278 203.735 411.771 204.053C411.514 206.42 411.365 207.106 410.609 209.363L391.268 209.405C391.945 206.823 392.509 204.518 393.479 202.023C382.891 201.837 372.332 201.971 361.753 201.822C361.027 204.324 360.232 206.806 359.37 209.264C351.119 209.619 341.603 209.475 333.272 209.427C332.356 211.661 330.448 216.779 329.411 218.75C329.684 217.316 330.162 216.503 330.147 214.93C329.495 213.528 329.353 213.743 327.941 212.703C329.044 210.895 329.173 208.076 330.373 205.713C338.569 206.118 348.025 205.654 356.552 205.947C357.892 203.161 358.407 201.291 359.121 198.336C368.502 197.704 388.789 197.832 398.191 198.311C397.696 199.652 397.522 200.167 397.255 201.574L397.685 202.19C396.609 203.281 396.087 203.647 396.691 205.005C399.125 206.358 404.473 205.814 407.32 205.585C408.616 203.612 409.23 202.273 410.226 200.159C415.666 200.332 424.383 200.372 429.651 199.908Z"/><path fill="#220001" transform="scale(0.703297 0.704434)" d="M462.739 198.439C468.416 198.635 472.892 198.569 478.613 198.35C477.688 198.943 477.369 199.134 476.265 199.174C479.901 199.953 483.97 199.272 486.787 199.927C483.165 200.263 475.615 200.11 471.809 200.163C468.149 200.214 458.237 200.44 455.029 199.888C457.139 199.24 461.741 200.597 462.739 198.439Z"/><path fill="#D41A21" transform="scale(0.703297 0.704434)" d="M611.608 203.563C617.881 204.049 622.71 203.89 628.819 203.617C639.812 203.127 648.34 204.369 659.079 201.289C663.814 199.931 676.585 199.918 681.471 201.4C685.475 207.339 688.888 213.929 692.739 220.061C692.453 220.938 691.968 221.855 692.582 222.604C696.687 227.62 701.192 230.491 705.311 235.804C701.883 243.424 694.833 246.464 689.649 252.229C688.276 253.756 686.87 259.891 685.539 261.806L685.234 261.205C687.26 255.353 688.321 252.219 692.31 247.424C695.996 242.994 699.644 238.372 703.287 233.892C689.665 222.891 687.514 219.462 678.946 204.506C672.794 204.703 664.06 204.277 657.745 204.628C657.198 204.658 657.142 205.961 656.717 206.959C655.162 207.225 648.692 207.032 646.822 207.015C640.186 206.953 633.55 206.926 626.914 206.933L567.707 206.953C557.033 206.952 544.016 206.619 533.545 207.166C532.211 210.069 531.415 213.049 529.854 215.895C530.755 211.892 532.32 208.153 533.302 203.975C540.357 203.152 545.087 203.764 552.02 203.886C560.534 204.001 569.05 204.015 577.566 203.926C580.452 203.888 586.332 203.92 588.933 203.54L589.348 203.206C591.409 203.38 591.963 203.206 594.041 202.784C595.99 203.814 608.294 203.366 611.608 203.563Z"/><defs><linearGradient id="gradient_0" gradientUnits="userSpaceOnUse" x1="280.69736" y1="326.71463" x2="284.88983" y2="350.08383"><stop offset="0" stop-color="#A91A1E"/><stop offset="1" stop-color="#CE2331"/></linearGradient></defs><path fill="url(#gradient_0)" transform="scale(0.703297 0.704434)" d="M254.861 358.096C260.245 350.899 264.267 343.157 269.618 336.118C272.96 331.724 278.406 327.244 281.825 322.744C284.839 318.777 289.047 310.31 292.454 307.101C291.315 310.146 286.906 316.354 285.055 319.403C279.728 328.173 272.059 338.496 267.304 347.352C287.193 339.673 306.296 327.116 328.702 326.934C331.54 326.911 335.777 327.046 338.472 327.836C331.115 327.7 323.674 327.124 316.496 328.793C311.638 329.923 309.328 332.293 304.804 334.388L267.922 351.717C263.422 353.831 259.485 356.263 254.861 358.096Z"/><path fill="#D41A21" transform="scale(0.703297 0.704434)" d="M642.155 318.156C642.845 318.74 645.001 322.604 646.034 323.853C650.428 329.165 656.22 334.677 662.395 337.795C664.517 331.045 666.744 324.329 669.073 317.648L669.728 317.828C669.137 321.843 669.059 325.719 668.491 329.595C667.913 333.545 666.102 339.01 664.785 342.828C657.999 340.222 650.318 335.816 646.098 329.734C646.212 323.38 642.728 321.752 642.155 318.156Z"/><path fill="#D41A21" transform="scale(0.703297 0.704434)" d="M427.103 324.177C432.308 318.842 436.673 314.217 443.157 310.377C441.894 313.68 440.998 316.534 439.972 319.926C446.424 320.026 452.627 320.052 458.728 317.83L459.72 318.245C452.457 322.172 442.616 322.362 434.374 324.015C430.213 325.334 424.039 325.48 419.629 325.69C416.43 325.843 409.165 324.849 406.484 326.105L405.854 327.999L404.762 327.608C405.052 326.486 405.144 325.816 405.871 324.886C407.663 323.831 423.553 324.363 427.103 324.177Z"/><path fill="#D41A21" transform="scale(0.703297 0.704434)" d="M367.99 326.582C368.862 326.237 369.951 325.897 370.853 325.649C378.151 323.635 384.363 320.783 390.998 317.199C388.632 319.305 387.885 320.429 385.868 322.479C382.075 326.333 375.299 327.806 369.931 327.742C368.875 329.608 368.434 330.281 367.8 332.38C366.712 335.982 368.574 341.933 365.447 344.043C361.435 344.46 357.134 337.576 354.88 334.973C353.14 332.964 347.613 330.578 345.105 329.369C351.633 330.608 358.204 335.199 363.757 338.733C365.269 334.552 366.196 330.832 367.99 326.582Z"/><path fill="#BE2234" transform="scale(0.703297 0.704434)" d="M672.988 292.473C676.226 282.566 681.177 270.845 685.234 261.205L685.539 261.806C683.632 266.945 674.3 288.006 675.161 291.716C675.207 291.914 675.234 292.116 675.272 292.316C675.3 292.456 675.328 292.597 675.358 292.737C674.006 294.064 672.949 293.159 671.865 294.213C672.621 294.4 672.676 294.365 673.427 294.328L673.933 294.915C673.813 296.251 673.534 296.513 674.16 297.388C674.434 296.44 674.622 295.67 674.835 294.709L675.561 294.309C677.057 295.188 677.352 296.884 677.785 298.561C677.863 298.852 677.936 299.145 678.002 299.44C676.822 304.103 674.791 305.593 672.903 309.968C671.775 312.582 671.057 315.438 669.728 317.828L669.073 317.648C670.496 312.732 672.453 307.838 673.892 302.755C669.87 299.82 666.24 297.215 664.274 292.496C667.444 292.319 669.805 292.362 672.988 292.473Z"/><path fill="#D41A21" transform="scale(0.703297 0.704434)" d="M458.728 317.83L462.655 316.211C463.085 316.93 463.535 317.667 463.986 318.373C469.603 327.165 483.022 322.57 491.589 323.393C492.207 324.806 490.833 324.776 491.63 325.907C498.689 327.017 509.973 325.725 517.383 326.32L517.52 326.614C506.71 326.746 495.898 326.661 485.091 326.36C479.67 326.258 474.011 326.61 468.659 325.678C466.808 325.356 466.141 324.786 464.927 323.423C463.102 320.628 463.429 317.977 459.72 318.245L458.728 317.83Z"/><path fill="#D41A21" transform="scale(0.703297 0.704434)" d="M397.281 325.906C398.831 329.429 399.941 332.816 400.956 336.531C402.61 333.83 403.669 330.597 404.762 327.608L405.854 327.999C404.108 333.752 406.442 339.74 403.159 345.654C402.26 345.743 401.223 345.906 400.348 345.774C398.947 342.828 398.016 339.447 397.333 336.267C397.954 335.221 398.555 333.708 399.051 332.56C398.329 330.228 397.692 328.325 397.281 325.906Z"/><path fill="#D41A21" transform="scale(0.703297 0.704434)" d="M311.226 260.689C311.768 256.3 315.072 251.782 315.322 248.264C315.698 242.959 314.172 238.989 317.128 233.392C317.231 233.197 317.534 230.458 317.764 229.681C319.201 232.93 323.197 238.679 325.149 242.106L318.715 241.98C316.908 246.88 313.5 256.254 311.226 260.689Z"/><path fill="#BE2234" transform="scale(0.703297 0.704434)" d="M479.994 210.208L480.478 210.703C482.009 210.581 482.481 210.533 483.95 210.114C484.183 210.138 485.692 210.279 485.824 210.318L485.015 210.851L485.103 211.457C486.628 212.423 491.439 212.889 493.438 213.153C492.312 215.047 492.12 215.414 491.634 217.538L491.062 217.395L491.072 217.232C490.541 216.613 479.744 216.716 477.745 216.48C478.475 214.327 479.166 212.331 479.994 210.208Z"/><path fill="#D41A21" transform="scale(0.703297 0.704434)" d="M491.062 217.395L491.634 217.538C491.122 219.961 489.934 222.252 489.062 224.584C486.552 231.29 483.675 237.009 482.292 244.089C486.071 244.224 488.592 243.569 491.531 243.578C493.189 243.771 494.904 243.997 496.562 244.134C498.488 244.329 500.533 244.263 501.774 245.751C502.407 248.108 499.636 250.026 500.829 252.809L499.777 252.682C498.989 251.236 500.937 248.461 501.522 245.634C494.399 245.723 487.276 245.741 480.153 245.688C481.153 241.667 484.32 234.632 485.865 230.634C487.419 226.611 489.274 221.166 491.062 217.395Z"/><path fill="#BE2234" transform="scale(0.703297 0.704434)" d="M517.383 326.32C521.962 326.15 524.405 325.308 528.817 324.504C531.863 323.95 536.171 324.225 539.263 324.413C538.57 325.213 538.345 325.488 537.499 326.115L539.453 326.56C535.371 326.681 531.342 326.256 527.295 326.234C524.203 326.217 520.633 326.458 517.52 326.614L517.383 326.32Z"/><path fill="#D41A21" transform="scale(0.703297 0.704434)" d="M539.263 324.413L539.663 324.445C542.701 324.714 545.24 325.975 548.264 326.088C559.891 326.522 571.562 326.099 583.198 326.248C584.27 326.262 585.478 326.262 586.537 326.38C582.287 326.873 577.343 326.488 573.04 326.638C562.206 327.016 550.162 326.2 539.453 326.56L537.499 326.115C538.345 325.488 538.57 325.213 539.263 324.413Z"/><path fill="#D41A21" transform="scale(0.703297 0.704434)" d="M661.322 211.124C665.985 210.87 670.98 211.036 675.662 211.148C682.197 222.9 685.162 225.809 694.531 234.959C691.286 238.983 687.83 243.423 684.418 247.245C682.89 246.134 682.027 245.351 680.639 244.055C679.762 245.978 678.778 247.744 677.769 249.595C674.323 249.489 670.587 249.551 667.118 249.542L665.31 253.632C670.503 253.816 676.276 253.733 681.514 253.767C678.534 260.533 675.911 268.243 673.085 275.115C671.591 278.747 670.117 283.401 668.094 286.694C663.626 286.509 658.876 286.581 654.385 286.574C657.95 296.522 659.413 297.903 666.726 305.43C665.215 310.034 660.566 324.789 658.528 328.321C649.877 321.887 643.989 308.893 641.979 298.568C634.791 307.886 627.11 313.555 616.303 317.814C612.345 319.256 608.266 320.342 604.114 321.058C605.795 314.927 609.168 308.525 611.044 301.616C607.824 304.833 605.564 307.08 601.787 309.582C601.085 306.385 600.133 303.249 598.939 300.202C597.603 305.619 594.144 313.633 592.39 319.6C587.171 319.675 581.951 319.658 576.732 319.549L602.867 250.565L610.539 230.24C612.527 224.891 614.847 218.286 617.255 213.171C627.134 213.184 637.343 213.073 647.192 213.36C645.41 218.355 643.74 223.025 642.593 228.209C651.314 223.306 655.232 218.671 661.322 211.124Z"/><defs><linearGradient id="gradient_1" gradientUnits="userSpaceOnUse" x1="635.92572" y1="269.41043" x2="639.74481" y2="244.30203"><stop offset="0" stop-color="#E5DADE"/><stop offset="1" stop-color="white"/></linearGradient></defs><path fill="url(#gradient_1)" transform="scale(0.703297 0.704434)" d="M636.85 243.036C638.17 244.2 637.41 245.227 638.564 246.903C639.469 246.605 640.115 246.301 640.974 245.911C642.186 246.016 641.751 245.795 642.579 246.774C642.515 247.612 642.461 247.918 642.252 248.733C643.43 250.026 648.452 249.624 650.251 249.614L649.273 253.733C643.934 253.695 638.594 253.692 633.255 253.725C632.212 256.351 631.208 259.24 630.222 261.909C628.891 265.853 627.633 270.229 625.314 273.652C626.11 268.915 626.129 265.044 626.298 260.276C632.374 252.628 632.57 251.88 636.85 243.036Z"/><path fill="#FBF8FA" transform="scale(0.703297 0.704434)" d="M620.886 286.569L633.385 286.539C629.557 290.44 627.476 292.063 622.947 295.156C619.335 297.263 617.418 297.669 613.436 298.582C615.858 295.055 619.009 290.384 620.886 286.569Z"/><path fill="#FBF8FA" transform="scale(0.703297 0.704434)" d="M668.353 226.735C668.855 227.002 674.357 235.53 675.38 236.893C672.384 236.767 668.998 236.831 665.971 236.822L658.026 236.881C661.602 233.603 665.158 230.389 668.353 226.735Z"/><path fill="#FBF8FA" transform="scale(0.703297 0.704434)" d="M627.59 227.405C628.668 227.557 628.974 227.546 629.857 228.16C630.246 229.922 627.488 236.041 626.704 238.164C625.008 242.76 623.534 246.959 619.939 250.408L619.189 250.821L618.773 250.572C618.608 248.139 625.949 229.606 627.59 227.405Z"/><path fill="#FBF8FA" transform="scale(0.703297 0.704434)" d="M612.793 264.834C613.467 265.658 612.533 270.181 612.239 271.333C610.461 278.311 608.785 285.182 603.547 290.419C603.302 290.244 603.295 290.096 603.135 289.769C605.72 282.663 609.669 271.572 612.793 264.834Z"/><path fill="#FBF8FA" transform="scale(0.703297 0.704434)" d="M661.535 266.088C662.357 266.29 662.32 266.292 663.02 266.788C663.8 268.88 662.167 271.914 660.806 273.466C656.449 272.7 659.86 267.997 661.535 266.088Z"/><path fill="#FBF8FA" transform="scale(0.703297 0.704434)" d="M641.709 266.549C642.563 266.527 642.694 266.552 643.536 266.726L643.947 267.49C644.023 269.528 642.882 271.36 641.973 273.228C637.135 272.707 640.14 269.261 641.709 266.549Z"/><path fill="#D41A21" transform="scale(0.703297 0.704434)" d="M416.502 210.036C420.985 209.963 425.468 209.984 429.949 210.1C427.721 216.918 424.833 223.557 422.513 230.442C427.4 230.424 433.888 230.571 438.64 230.255L439.312 231.789C439.882 231.646 440.224 231.164 440.651 230.719C441.559 228.824 443.081 224.014 443.835 221.834C447.428 221.746 451.453 221.878 455.077 221.917C455.762 222.484 455.901 222.674 456.727 222.93C458.278 218.679 459.798 214.418 461.288 210.145C465.197 210.156 469.895 210.051 473.729 210.38C471.749 214.177 467.172 228.061 465.463 232.947C461.119 245.368 456.111 258.578 452.259 271.106L461.827 271.258C457.514 259.018 462.178 247.358 466.633 235.922C467.918 232.624 469.859 227.103 471.319 224.071C471.485 223.726 471.657 223.384 471.833 223.044C475.497 222.897 478.654 223.072 482.321 223.314C478.564 231.332 475.245 240.683 472.453 249.099C471.589 251.703 472.057 255.247 471.216 257.931C469.166 263.976 466.816 269.613 465.387 275.885L461.781 271.19C460.693 276.214 458.098 282.051 456.451 287.064C455.603 289.643 452.775 298.91 450.698 300.074C446.624 302.357 441.306 303.654 437.38 306.482C432.531 309.674 427.976 315.285 423.57 318.167C420.43 318.236 404.109 317.928 402.562 318.76L401.93 319.673C400.576 318.704 397.91 306.754 396.903 303.828C388.006 312.21 380.147 317.383 367.792 319.769L374.105 302.204C375.101 299.461 376.923 294.062 378.299 291.683C383.402 289.961 387.405 288.717 392.23 286.286C389.741 276.719 390.919 274.738 394.93 265.791C397.832 259.316 400.879 252.118 402.95 245.312C403.158 244.592 403.034 244.586 402.538 244.294L400.88 244.708L400.571 244.396C400.898 240.97 403.999 234.169 405.425 230.727C407.07 229.792 408.386 231.096 408.87 230.088C411.363 224.905 414.885 215.098 416.502 210.036Z"/><path fill="#FBF8FA" transform="scale(0.703297 0.704434)" d="M420.716 277.337C426.171 275.168 430.36 271.207 434.225 266.929C434.994 266.079 435.746 265.266 436.714 264.64L436.938 265.154C436.573 266.863 435.07 269.384 434.199 271.009C438.12 271.411 444.834 271.373 448.968 271.462C446.516 277.458 443.817 286.218 441.675 292.464C431.011 293.117 419.551 297.527 412.496 305.741C409.51 309.217 406.757 312.857 403.688 316.241C405.398 309.575 408.935 303.125 410.837 296.513C411.788 293.207 411.478 291.882 409.796 289.079C415.19 282.893 418.255 277.019 421.591 269.656C421.887 269.688 422.951 269.787 423.176 269.848C422.246 272.382 421.507 274.756 420.716 277.337Z"/><path fill="#D41A21" transform="scale(0.703297 0.704434)" d="M434.144 277.446C436.012 277.36 438.318 277.493 440.219 277.551C439.206 280.918 438.622 283.31 437.158 286.512C431.394 288.258 428.382 288.335 422.206 290.974C420.723 291.7 418.141 293.332 417.141 291.34C417.274 286.242 429.785 278.278 434.144 277.446Z"/><path fill="#FBF8FA" transform="scale(0.703297 0.704434)" d="M455.077 221.917C455.762 222.484 455.901 222.674 456.727 222.93C455.251 227.227 446.264 254.221 444.022 255.555L443.412 255.385C442.793 252.934 453.557 226.434 455.077 221.917Z"/><path fill="#FBF8FA" transform="scale(0.703297 0.704434)" d="M438.64 230.255L439.312 231.789C439.882 231.646 440.224 231.164 440.651 230.719C438.707 237.675 434.595 251.798 428.767 255.879L427.729 254.978C430.08 248.255 431.411 246.586 434.868 240.593C435.492 239.51 437.925 232.096 438.64 230.255Z"/><path fill="#FD97A4" transform="scale(0.703297 0.704434)" d="M427.729 254.978L428.767 255.879C425.803 259.35 424.805 267.37 423.176 269.848C422.951 269.787 421.887 269.688 421.591 269.656C423.447 265.325 425.827 258.824 427.729 254.978Z"/><path fill="#FBF8FA" transform="scale(0.703297 0.704434)" d="M417.602 244.348C418.27 244.372 418.425 244.525 418.991 244.863C420.799 249.255 410.221 269.492 406.985 273.411C406.511 273.724 406.642 273.629 406.064 273.772C405.663 271.517 415.592 247.229 417.602 244.348Z"/><path fill="#D41A21" transform="scale(0.703297 0.704434)" d="M366.404 207.875L384.652 207.956C384.119 210.478 383.454 212.953 382.807 215.448L406.128 215.457L401.012 230.279C395.482 230.224 389.953 230.23 384.424 230.295C389.884 234.508 394.683 235.703 401.211 237.482C398.006 240.826 394.973 244.52 392.112 248.159L398.94 248.092C397.593 252.349 395.697 257.615 393.898 261.648L384.742 261.719C377.877 283.839 367.396 307.354 360.736 329.316C335.597 311.465 307.941 321.241 283.589 334.682L283.192 334.498C283.467 332.677 300.585 309.97 302.486 306.756C302.98 305.92 305.329 304.142 306.416 303.836C319.505 300.147 338.336 300.999 350.732 306.34C355.725 292.169 362 275.887 366.358 261.761C350.317 261.342 333.927 262.019 317.915 261.497C319.507 257.176 321.203 252.173 323.15 248.07L336.308 248.176C333.736 243.311 330.575 239.408 328.083 234.745C334.641 234.001 339.715 233.437 345.391 229.913C341.108 230.263 336.607 230.23 332.312 230.141C333.204 226.788 336.185 218.655 337.641 215.487C346.045 215.295 355.236 215.468 363.692 215.474C364.45 212.568 365.228 210.617 366.404 207.875Z"/><path fill="#FBF8FA" transform="scale(0.703297 0.704434)" d="M367.859 234.258C368.468 234.532 370.44 237.061 371.019 237.796C374.552 242.284 378.229 245.104 383.031 248.17C375.663 247.952 367.774 248.11 360.368 248.134C355.828 248.174 349.398 248.353 344.991 247.953C348.365 246.12 352.203 244.765 355.676 242.755C360.073 240.211 363.738 237.215 367.859 234.258Z"/><path fill="#D41A21" transform="scale(0.703297 0.704434)" d="M524.25 254.108C547.777 254.439 572.135 254.149 595.72 254.05C589.128 274.733 579.398 295.381 572.636 316.098C572.304 317.113 571.816 318.657 571.232 319.499L569.905 319.632C566.126 319.703 557.966 320.157 554.576 319.525C546.758 318.067 540.073 317.093 531.965 317.53C529.626 317.55 527.288 317.413 525.003 318.08C517.074 320.395 508.147 319.746 499.899 319.544C501.9 315.198 505.164 305.552 507.023 300.626L524.25 254.108Z"/><path fill="#FAC9E6" transform="scale(0.703297 0.704434)" d="M528.839 300.421C535.155 300.3 541.519 300.303 547.837 300.325C550.479 300.334 556.456 299.733 557.425 302.527L556.929 303.211C550.797 303.355 544.663 303.444 538.53 303.478C536.379 303.496 531.005 303.662 529.094 303.377C528.474 302.105 528.729 302.046 528.839 300.421Z"/><path fill="#FBF8FA" transform="scale(0.703297 0.704434)" d="M539.957 269.991C544.403 269.728 564.463 269.468 568.313 269.965C568.965 270.81 568.76 270.987 568.802 272.217C561.31 271.889 548.705 273.135 541.085 271.667C540.315 271.519 540.127 270.62 539.957 269.991Z"/><path fill="#FBF8FA" transform="scale(0.703297 0.704434)" d="M534.475 285.979C537.875 285.904 561.628 285.415 562.699 286.715L562.571 287.946C558.854 288.414 539.344 288.628 535.393 288.237C534.548 287.536 534.735 287.266 534.475 285.979Z"/><path fill="#D41A21" transform="scale(0.703297 0.704434)" d="M538.806 213.789C563.228 213.319 589.371 213.741 613.901 213.774C613.412 215.292 612.71 217.03 612.111 218.526C607.823 229.24 604.164 240.426 599.673 251.039C592.015 251.489 581.218 251.104 573.253 251.1L524.744 251.01C527.406 240.162 533.254 228.055 536.479 217.212C536.941 215.658 537.333 214.46 538.806 213.789Z"/><path fill="#FAC9E6" transform="scale(0.703297 0.704434)" d="M554.17 226.273C564.926 225.981 575.72 226.407 586.478 226.088C588.141 226.038 590.226 226.021 591.396 227.264L591.224 228.191C590.272 229.019 589.952 228.767 588.445 228.874C581.475 228.94 574.505 228.967 567.535 228.954C564.323 228.957 552.212 229.552 550.664 227.74L550.919 227.072C552.26 226.091 552.223 226.399 554.17 226.273Z"/><path fill="#FBF8FA" transform="scale(0.703297 0.704434)" d="M552.912 237.313C557.282 237.204 583.14 236.559 585.032 238.257L584.701 238.791C583.339 239.515 581.416 239.284 579.825 239.244C574.808 239.254 551.326 239.806 548.047 238.479L548.132 238.049C549.772 237.25 551.102 237.35 552.912 237.313Z"/><path fill="#D41A21" transform="scale(0.703297 0.704434)" d="M480.157 252.101C484.256 252.061 488.064 252.046 492.171 252.194C490.821 254.702 490.325 256.458 489.739 259.154C492.707 259.27 495.718 259.216 498.691 259.192C498.368 260.657 497.894 262.118 497.455 263.555L498.13 265.29C500.464 264.458 514.481 265.064 517.74 265.172C516.286 269.527 514.958 273.652 512.936 277.785L506.435 277.964L504.049 285.483C506.26 285.479 508.656 285.629 510.879 285.724C508.694 290.015 507.876 294.603 505.688 298.848L498.75 298.754C497.907 301.819 493.999 313.733 491.742 315.891C489.866 317.684 477.177 317.078 474.273 317.092C472.719 317.099 470.326 316.6 469.136 315.245C468.077 311.799 472.221 302.001 473.622 298.042C465.893 306.665 460.622 312.176 448.731 313.476C450.655 308.499 452.31 302.227 454.813 297.546C455.754 295.784 459.398 294.479 461.17 293.079C467.299 288.237 470.867 278.808 473.391 271.721L468.273 271.234C470.119 267.358 470.77 263.043 473.077 258.897L477.468 259.732C478.73 257.115 479.328 254.882 480.157 252.101Z"/><path fill="#FBF8FA" transform="scale(0.703297 0.704434)" d="M495.207 271.501L495.585 272.745C494.272 275.488 492.027 282.392 490.607 285.842L479.608 285.824C481.163 280.813 482.987 276.465 485.022 271.667C488.418 271.671 491.813 271.615 495.207 271.501Z"/><path fill="#FBF8FA" transform="scale(0.703297 0.704434)" d="M495.207 271.501C494.785 270.027 496.773 265.114 497.455 263.555L498.13 265.29C497.852 267.036 496.299 270.978 495.585 272.745L495.207 271.501Z"/><path fill="#FBF8FA" transform="scale(0.703297 0.704434)" d="M484.4 297.731L485.35 298.06C486.409 299.861 485.349 302.214 484.109 303.694C483.308 303.384 483.172 303.274 482.457 302.782C481.355 300.306 482.472 299.23 484.4 297.731Z"/><path fill="#D41A21" transform="scale(0.703297 0.704434)" d="M320.201 266.597L359.965 266.639C358.624 270.503 349.767 297.631 348.368 298.751C335.135 298.416 321.416 298.782 308.103 298.62C311.78 288.812 317.231 276.267 320.201 266.597Z"/><path fill="#FBF8FA" transform="scale(0.703297 0.704434)" d="M330.813 279.549C333.603 279.693 336.661 279.713 339.476 279.789C339.011 282.003 338.489 283.623 337.806 285.765C334.971 285.927 331.896 285.882 329.036 285.89L330.813 279.549Z"/><defs><linearGradient id="gradient_2" gradientUnits="userSpaceOnUse" x1="386.50391" y1="151.60983" x2="388.34512" y2="203.62614"><stop offset="0" stop-color="#F586C8"/><stop offset="1" stop-color="#FEE3F3"/></linearGradient></defs><path fill="url(#gradient_2)" transform="scale(0.703297 0.704434)" d="M413.518 126.369C413.537 126.436 413.559 126.502 413.574 126.57C413.95 128.241 410.5 135.074 411.137 135.494C414.111 137.455 431.647 136.375 435.929 135.989C438.027 135.799 447.219 133.9 448.46 134.478C448.633 134.558 448.987 135.058 449.135 135.221C449.663 133.841 450.73 129.549 451.365 128.895L451.672 129.311C449.698 135.997 447.279 144.518 444.96 151.017C438.361 171.307 427.44 187.973 408.011 197.865C404.696 199.592 401.241 201.039 397.685 202.19L397.255 201.574C397.522 200.167 397.696 199.652 398.191 198.311C388.789 197.832 368.502 197.704 359.121 198.336C358.407 201.291 357.892 203.161 356.552 205.947C348.025 205.654 338.569 206.118 330.373 205.713C332.009 201.348 333.836 194.866 335.235 190.327L344.831 158.787C347.799 158.043 351.208 157.788 354.204 157.215C367.555 154.659 383.959 154.207 396.275 148.735C396.619 148.37 400.951 145.48 401.926 144.642C408.576 138.923 410.551 134.212 413.518 126.369Z"/><path fill="#F577C1" transform="scale(0.703297 0.704434)" d="M413.518 126.369C413.537 126.436 413.559 126.502 413.574 126.57C413.95 128.241 410.5 135.074 411.137 135.494C414.111 137.455 431.647 136.375 435.929 135.989C438.027 135.799 447.219 133.9 448.46 134.478C448.633 134.558 448.987 135.058 449.135 135.221C449.663 133.841 450.73 129.549 451.365 128.895L451.672 129.311C449.698 135.997 447.279 144.518 444.96 151.017L444.529 150.192C444.259 151.126 444.187 151.328 443.701 152.167C442.51 152.688 440.469 151.806 438.804 151.946C433.386 152.403 394.215 154.307 391.763 151.521C393.506 150.833 395.363 150.432 396.275 148.735C396.619 148.37 400.951 145.48 401.926 144.642C408.576 138.923 410.551 134.212 413.518 126.369Z"/><defs><linearGradient id="gradient_3" gradientUnits="userSpaceOnUse" x1="503.9946" y1="94.750702" x2="506.52173" y2="136.60968"><stop offset="0" stop-color="#EC259A"/><stop offset="1" stop-color="#F670BF"/></linearGradient></defs><path fill="url(#gradient_3)" transform="scale(0.703297 0.704434)" d="M470.857 96.0037C485.486 96.0956 499.685 95.8957 514.264 97.3337C526.274 98.5185 536.648 100.644 548.409 102.772C545.4 113.733 541.666 124.621 538.314 135.489C537.947 136.679 537.508 138.029 537.026 139.175C536.74 140.82 534.174 149.348 533.447 150.652L532.993 150.15L532.886 150.484C532.702 151.05 532.616 151.4 532.224 151.844C521.549 149.233 500.129 153.147 488.74 153.786C485.822 153.95 475.001 154.548 472.76 155.407C465.959 155.409 459.158 155.37 452.358 155.29C453.969 149.668 455.864 142.4 458.028 136.994C458.555 135.074 459.002 133.452 459.685 131.567C465.041 132.153 471.005 131.629 476.338 131.886C484.427 132.275 496.043 132.744 503.977 134.076C504.889 131.704 505.753 129.314 506.57 126.908C488.747 124.847 480.085 124.649 462.134 124.716C464.655 115.401 468.697 104.868 470.857 96.0037Z"/><path fill="#F577C1" transform="scale(0.703297 0.704434)" d="M458.028 136.994C459.466 135.521 459.702 133.43 460.736 132.529C462.983 132.499 465.663 132.921 467.45 132.851C474.642 132.568 480.338 132.639 487.518 133.218C492.62 133.644 497.714 134.159 502.798 134.763C505.32 135.084 507.691 135.556 510.274 135.781C512.998 136.017 517.789 134.973 520.137 135.24C523.762 135.651 534.88 133.382 537.151 135.012C537.791 136.637 536.667 136.887 537.026 139.175C536.74 140.82 534.174 149.348 533.447 150.652L532.993 150.15L532.886 150.484C532.702 151.05 532.616 151.4 532.224 151.844C521.549 149.233 500.129 153.147 488.74 153.786C485.822 153.95 475.001 154.548 472.76 155.407C465.959 155.409 459.158 155.37 452.358 155.29C453.969 149.668 455.864 142.4 458.028 136.994Z"/><defs><linearGradient id="gradient_4" gradientUnits="userSpaceOnUse" x1="485.57034" y1="152.13699" x2="487.02386" y2="197.25385"><stop offset="0" stop-color="#F690CD"/><stop offset="1" stop-color="#FEE1F2"/></linearGradient></defs><path fill="url(#gradient_4)" transform="scale(0.703297 0.704434)" d="M472.76 155.407C475.001 154.548 485.822 153.95 488.74 153.786C500.129 153.147 521.549 149.233 532.224 151.844C532.616 151.4 532.702 151.05 532.886 150.484L532.993 150.15L533.447 150.652C528.8 166.653 525.036 182.225 509.38 190.617C499.888 195.705 489.113 197.128 478.613 198.35C472.892 198.569 468.416 198.635 462.739 198.439C455.101 198.019 447.461 197.637 439.819 197.294C442.786 185.769 446.605 173.5 449.946 162.034C455.532 161.927 461.121 161.988 466.704 162.218C473.569 162.504 483.881 164.244 490.533 163.023C492.577 162.648 494.319 159.467 495.175 157.605C487.524 156.729 480.221 156.22 472.76 155.407Z"/><defs><linearGradient id="gradient_5" gradientUnits="userSpaceOnUse" x1="584.14032" y1="118.6758" x2="585.77692" y2="156.1256"><stop offset="0" stop-color="#F059B3"/><stop offset="1" stop-color="#FA9DD3"/></linearGradient></defs><path fill="url(#gradient_5)" transform="scale(0.703297 0.704434)" d="M540.067 150.998C542.806 140.493 552.28 130.212 561.547 125.027C574.653 117.695 587.766 116.307 602.11 120.063C613.019 122.906 622.359 129.951 628.091 139.66C633.53 149.025 634.215 164.03 629.049 173.564C628.809 170.936 631.623 163.796 631.809 161.343C631.907 160.044 631.7 154.96 631.68 153.227C631.413 153.145 631.164 153.061 630.893 153.193C628.999 154.429 626.015 153.417 624.251 153.958C618.536 155.712 613.628 155.245 607.613 154.752C606.558 158.643 604.949 167.781 600.134 168.831C608.276 159.353 610.019 145.845 596.151 141.139C593.596 145.612 591.442 152.292 588.877 157.273L588.64 156.479C588.889 155.578 588.893 155.629 588.683 154.723C586.439 152.72 576.723 154.373 573.62 152.751C571.982 151.895 572.479 152.777 571.642 150.853C572.912 148.142 574.474 145.711 574.178 142.793C573.565 141.824 573.931 142.113 572.767 141.75C566.408 142.541 560.727 151.379 558.839 157.127C555.073 153.02 545.575 157.024 540.556 154.386C540.068 154.13 540.159 151.897 540.067 150.998Z"/><path fill="#EF38A4" transform="scale(0.703297 0.704434)" d="M429.191 80.0587C435.963 80.0987 442.563 80.0131 449.338 80.3395C454.888 80.6069 460.857 81.6021 466.269 81.862C463.429 93.0857 459.159 104.828 455.937 116.008C455.495 117.541 452.162 128.512 451.672 129.311L451.365 128.895C450.73 129.549 449.663 133.841 449.135 135.221C448.987 135.058 448.633 134.558 448.46 134.478C447.219 133.9 438.027 135.799 435.929 135.989C431.647 136.375 414.111 137.455 411.137 135.494C410.5 135.074 413.95 128.241 413.574 126.57C413.559 126.502 413.537 126.436 413.518 126.369C414.055 123.709 415.419 120.463 416.298 117.829C420.5 105.238 425.097 92.6786 429.191 80.0587Z"/><defs><linearGradient id="gradient_6" gradientUnits="userSpaceOnUse" x1="562.7475" y1="152.42012" x2="563.91016" y2="192.14317"><stop offset="0" stop-color="#F896D0"/><stop offset="1" stop-color="#FDDEF0"/></linearGradient></defs><path fill="url(#gradient_6)" transform="scale(0.703297 0.704434)" d="M558.839 157.127C560.727 151.379 566.408 142.541 572.767 141.75C573.931 142.113 573.565 141.824 574.178 142.793C574.474 145.711 572.912 148.142 571.642 150.853C572.479 152.777 571.982 151.895 573.62 152.751C576.723 154.373 586.439 152.72 588.683 154.723C588.893 155.629 588.889 155.578 588.64 156.479L588.877 157.273C587.964 160.327 584.924 165.541 583.357 168.474C578.471 177.444 573.449 186.739 563.952 191.467C553.929 196.457 543.379 190.281 539.14 180.752C535.172 171.834 536.678 159.908 540.067 150.998C540.159 151.897 540.068 154.13 540.556 154.386C545.575 157.024 555.073 153.02 558.839 157.127Z"/><path transform="scale(0.703297 0.704434)" d="M558.839 157.127C560.727 151.379 566.408 142.541 572.767 141.75C573.931 142.113 573.565 141.824 574.178 142.793C574.474 145.711 572.912 148.142 571.642 150.853C569.63 154.973 564.227 167.62 560.918 169.393C556.444 169.446 558.012 159.803 558.839 157.127Z"/><path fill="#FAC9E6" transform="scale(0.703297 0.704434)" d="M600.134 168.831C604.949 167.781 606.558 158.643 607.613 154.752C613.628 155.245 618.536 155.712 624.251 153.958C626.015 153.417 628.999 154.429 630.893 153.193C631.164 153.061 631.413 153.145 631.68 153.227C631.7 154.96 631.907 160.044 631.809 161.343C631.623 163.796 628.809 170.936 629.049 173.564C626.516 182.339 615.15 192.852 607.213 197.008C602.755 199.343 598.687 200.953 594.041 202.784C591.963 203.206 591.409 203.38 589.348 203.206L580.744 180.986C590.449 177.415 592.395 175.942 600.134 168.831Z"/><path fill="#92457A" transform="scale(0.703297 0.704434)" d="M165.39 201.375C163.458 203.121 157.972 206.426 155.53 207.647C143.189 213.816 130.375 219.481 118.01 225.564L96.4764 236.383C93.5105 237.896 83.4352 243.299 80.8929 243.825C81.3302 242.15 81.3897 242.117 79.9962 241.32C81.2272 239.082 127.434 216.448 133.277 214.22C141.11 211.235 157.306 203.972 165.39 201.375Z"/><path fill="#92457A" transform="scale(0.703297 0.704434)" d="M93.4382 151.157C95.6078 150.773 96.1259 151.068 98.2587 151.692C95.2624 153.504 92.2205 154.793 90.0879 157.454C90.7256 155.126 92.1401 153.203 93.4382 151.157Z"/><path fill="#92457A" transform="scale(0.703297 0.704434)" d="M213.691 51.3013C214.947 50.5134 215.983 49.4001 217.041 48.3538C217.128 50.7933 215.609 54.2134 214.68 56.5694L213.691 51.3013Z"/><defs><linearGradient id="gradient_7" gradientUnits="userSpaceOnUse" x1="140.47392" y1="176.79424" x2="116.50831" y2="369.45355"><stop offset="0" stop-color="#FDE7F5"/><stop offset="1" stop-color="white"/></linearGradient></defs><path fill="url(#gradient_7)" transform="scale(0.703297 0.704434)" d="M202.929 113.327C214.974 109.061 227.166 106.081 239.659 103.437C244.641 102.383 250.623 100.857 255.608 100.698C252.526 110.352 249.528 120.032 246.614 129.738C245.354 133.847 243.229 139.885 242.222 143.832L240.88 147.934L228.863 186.055C227.002 192.04 222.931 206.165 220.263 211.589C220.24 211.702 220.216 211.815 220.192 211.927C215.466 224.9 206.401 235.677 196.376 244.925C191.729 249.211 186.941 253.383 181.937 257.2C168.608 267.364 154.807 276.948 140.943 286.353C120.105 300.436 99.1782 314.389 78.1647 328.21L46.917 348.683C41.7458 352.078 33.982 357.504 28.7026 360.342C30.8123 352.027 34.5164 341.22 37.2015 332.939L48.8157 296.609L55.9858 274C57.1559 270.264 59.1398 263.365 60.7517 259.993C68.0094 255.116 78.2145 251.064 85.9816 246.685C110.707 232.745 137.64 222.353 162.499 208.926C165.755 206.546 169.18 204.378 171.668 201.133C178.214 192.597 187.997 161.406 191.773 149.53C192.569 147.437 192.99 145.315 193.916 143.036C196.542 133.473 200.654 122.73 202.929 113.327Z"/><defs><linearGradient id="gradient_8" gradientUnits="userSpaceOnUse" x1="223.80641" y1="103.07493" x2="226.09689" y2="142.75317"><stop offset="0" stop-color="#EC1C97"/><stop offset="1" stop-color="#F463B8"/></linearGradient></defs><path fill="url(#gradient_8)" transform="scale(0.703297 0.704434)" d="M202.929 113.327C214.974 109.061 227.166 106.081 239.659 103.437C244.641 102.383 250.623 100.857 255.608 100.698C252.526 110.352 249.528 120.032 246.614 129.738C245.354 133.847 243.229 139.885 242.222 143.832L240.88 147.934C240.797 147.998 239.925 148.658 239.925 148.658C224.656 149.71 209.356 151.001 194.049 151.141C192.997 151.151 192.276 150.333 191.773 149.53C192.569 147.437 192.99 145.315 193.916 143.036C196.542 133.473 200.654 122.73 202.929 113.327Z"/><path fill="#F577C1" transform="scale(0.703297 0.704434)" d="M193.916 143.036L194.098 142.863C194.773 142.206 194.905 142.093 195.256 141.233C196.501 141.007 200.64 142.475 203.484 142.441C212.844 142.243 222.198 141.804 231.536 141.125C234.211 140.944 238.194 139.929 240.609 140.566C241.647 141.436 242.005 142.439 242.222 143.832L240.88 147.934C240.797 147.998 239.925 148.658 239.925 148.658C224.656 149.71 209.356 151.001 194.049 151.141C192.997 151.151 192.276 150.333 191.773 149.53C192.569 147.437 192.99 145.315 193.916 143.036Z"/><defs><linearGradient id="gradient_9" gradientUnits="userSpaceOnUse" x1="208.34386" y1="149.98732" x2="210.12569" y2="188.84883"><stop offset="0" stop-color="#F571BE"/><stop offset="1" stop-color="#FABAE0"/></linearGradient></defs><path fill="url(#gradient_9)" transform="scale(0.703297 0.704434)" d="M191.773 149.53C192.276 150.333 192.997 151.151 194.049 151.141C209.356 151.001 224.656 149.71 239.925 148.658C239.925 148.658 240.797 147.998 240.88 147.934L228.863 186.055C227.002 192.04 222.931 206.165 220.263 211.589C219.679 207.994 226.802 193.484 227.138 188.442L226.651 188.004C225.513 187.679 223.438 187.358 222.356 187.89C219.317 189.385 192.788 189.416 187.836 189.307C185.324 189.252 181.754 188.455 179.372 188.815C179.317 188.824 178.97 188.916 178.901 189.001C177.101 191.23 175.061 198.035 172.184 201.797C170.135 204.475 166.207 208.53 162.789 208.899C162.692 208.909 162.596 208.917 162.499 208.926C165.755 206.546 169.18 204.378 171.668 201.133C178.214 192.597 187.997 161.406 191.773 149.53Z"/><defs><linearGradient id="gradient_10" gradientUnits="userSpaceOnUse" x1="274.78418" y1="154.9108" x2="280.58881" y2="242.02916"><stop offset="0" stop-color="#F682C7"/><stop offset="1" stop-color="white"/></linearGradient></defs><path fill="url(#gradient_10)" transform="scale(0.703297 0.704434)" d="M297.75 139.014C303.519 140.231 305.456 135.825 305.83 135.85C312.042 136.267 339.027 133.227 343.003 134.88C342.38 137.071 340.91 140.711 341.134 142.722C340.831 144.364 339.019 150.352 338.246 151.824C336.747 157.963 334.284 164.177 332.445 170.083C326.672 188.622 318.562 206.212 300.988 216.368C286.811 224.561 266.158 231.182 250.491 236.907C242.477 239.836 226.351 245.602 218.25 247.578C220.865 237.086 224.045 226.602 227.164 216.235C228.679 211.196 230.468 203.739 232.192 199.005C235.505 197.598 241.906 196.111 245.611 195.124L268.266 189.128C278.228 186.594 283.325 187.455 287.569 176.947C288.011 175.868 288.428 174.779 288.821 173.682C272.764 177.343 252.422 182.965 236.423 187.55C238.924 177.795 242.506 168.096 245.464 158.455C245.98 156.772 246.585 154.842 247.227 153.211C247.291 152.832 247.634 151.102 248.086 151.007C264.68 147.505 281.195 142.516 297.75 139.014Z"/><path fill="#F577C1" transform="scale(0.703297 0.704434)" d="M297.75 139.014C303.519 140.231 305.456 135.825 305.83 135.85C312.042 136.267 339.027 133.227 343.003 134.88C342.38 137.071 340.91 140.711 341.134 142.722C340.831 144.364 339.019 150.352 338.246 151.824L337.639 151.8C337.333 152.622 337.287 152.805 337.145 153.673C336.569 153.931 321.288 153.47 319.045 154.24C318.982 154.261 313.085 154.662 312.98 154.665C305.848 154.88 249.042 158.22 247.195 156.517C247.192 155.161 247.469 154.394 247.227 153.211C247.291 152.832 247.634 151.102 248.086 151.007C264.68 147.505 281.195 142.516 297.75 139.014Z"/><defs><linearGradient id="gradient_11" gradientUnits="userSpaceOnUse" x1="121.48747" y1="152.35483" x2="124.38279" y2="225.51979"><stop offset="0" stop-color="#F36FBE"/><stop offset="1" stop-color="#FFF6FB"/></linearGradient></defs><path fill="url(#gradient_11)" transform="scale(0.703297 0.704434)" d="M107.962 152.581C132.173 141.573 157.008 131.991 182.338 123.885C179.761 133.746 176.411 144.018 173.326 153.789C170.451 163.543 167.257 173.203 164.378 182.956C163.935 184.456 163.42 185.92 162.786 187.352C160.029 189.03 150.703 192.406 147.291 193.776C137.8 197.558 128.394 201.551 119.08 205.752C109.668 210.057 100.37 214.607 91.1961 219.399C85.4543 222.409 78.2968 226.471 72.5339 229.064C76.4121 214.998 82.2298 199.575 86.4114 185.423C87.8722 180.479 93.5116 162.021 95.3671 158.323C98.7763 156.407 104.255 154.201 107.962 152.581Z"/><defs><linearGradient id="gradient_12" gradientUnits="userSpaceOnUse" x1="144.31825" y1="126.67901" x2="145.49261" y2="154.11679"><stop offset="0" stop-color="#ED46AC"/><stop offset="1" stop-color="#F572BF"/></linearGradient></defs><path fill="url(#gradient_12)" transform="scale(0.703297 0.704434)" d="M107.962 152.581C132.173 141.573 157.008 131.991 182.338 123.885C179.761 133.746 176.411 144.018 173.326 153.789C169.694 151.705 161.792 153.432 157.568 153.569C149.831 153.82 112.63 156.544 107.962 152.581Z"/><path fill="#EA078D" transform="scale(0.703297 0.704434)" d="M108.845 116.297C110.177 109.445 113.496 101.931 115.466 95.1242C116.641 91.0613 118.285 85.6488 119.922 81.8462C121.543 78.079 131.589 75.1167 135.35 73.7154C150.324 68.1719 165.548 63.3276 180.972 59.1982C188.468 57.1171 197.92 54.4838 205.481 52.896C202.694 62.8533 199.491 72.4943 196.276 82.3127C193.748 90.036 191.549 98.3521 188.816 106C179.416 109.527 169.365 112.621 159.821 115.982C155.559 117.483 148.181 120.582 144.341 121.674C143.407 122.201 140.227 123.447 139.019 123.978C134.939 125.777 130.872 127.604 126.818 129.459C121.691 131.809 116.577 134.187 111.477 136.594C108.263 138.134 103.807 140.602 100.515 141.537C103.144 133.076 105.921 124.661 108.845 116.297Z"/><path fill="#EF38A4" transform="scale(0.703297 0.704434)" d="M108.845 116.297C108.945 116.512 109.067 116.774 109.212 117.085C108.095 121.708 105.605 127.681 104.297 132.085C114.033 137.312 116.185 132.866 125.002 129.423C127.892 128.295 142.44 121.006 144.305 121.238L144.341 121.674C143.407 122.201 140.227 123.447 139.019 123.978C134.939 125.777 130.872 127.604 126.818 129.459C121.691 131.809 116.577 134.187 111.477 136.594C108.263 138.134 103.807 140.602 100.515 141.537C103.144 133.076 105.921 124.661 108.845 116.297Z"/><defs><linearGradient id="gradient_13" gradientUnits="userSpaceOnUse" x1="304.64853" y1="87.142494" x2="307.46182" y2="136.7123"><stop offset="0" stop-color="#EA038B"/><stop offset="1" stop-color="#F45FB6"/></linearGradient></defs><path fill="url(#gradient_13)" transform="scale(0.703297 0.704434)" d="M251.961 141.311L260.843 114.109C266.713 95.762 263.398 98.2732 283.004 93.9525C304.533 89.2079 326.165 86.2846 348.128 84.3431C352.016 83.9995 356.252 83.7696 360.071 83.2919C354.719 101.636 348.492 119.816 342.845 138.074C342.411 139.477 341.76 141.403 341.134 142.722C340.91 140.711 342.38 137.071 343.003 134.88C339.027 133.227 312.042 136.267 305.83 135.85C305.456 135.825 303.519 140.231 297.75 139.014C299.526 138.546 302.29 137.727 304.03 137.466C305.296 134.012 306.303 130.537 307.357 127.016C293.858 130.09 280.72 133.818 267.332 137.275C262.5 138.523 256.743 140.364 251.961 141.311Z"/><path fill="#EF38A4" transform="scale(0.703297 0.704434)" d="M396.677 89.7498C401.398 89.6159 406.843 89.5949 411.519 89.8478C407.724 100.687 400.377 122.637 398.434 133.374C387.91 133.058 377.235 134.409 366.762 135.51C362.12 136.213 357.467 136.833 352.803 137.368C355.37 127.572 359.629 116.744 362.533 106.988C363.866 102.508 366.034 97.2905 366.701 92.7192C377.348 90.8973 385.856 90.1878 396.677 89.7498Z"/><path fill="#EA078D" transform="scale(0.703297 0.704434)" d="M404.413 39.6262C411.194 39.3699 420.614 39.8095 427.653 39.9155C423.671 53.5801 418.93 68.2995 414.503 81.8438L393.209 81.7531C384.631 81.6528 378.25 82.8793 370.503 82.9386C374.717 70.2123 381.013 52.7804 384.243 40.1414C390.965 39.9225 397.688 39.7508 404.413 39.6262Z"/><path fill="#EA078D" transform="scale(0.703297 0.704434)" d="M246.287 46.3886L246.522 46.5256C246.722 47.3984 244.084 54.7745 243.66 56.0912C239.827 68.1793 236.22 80.3381 232.842 92.5613C230.454 92.8027 226.044 94.0621 223.583 94.6857C218.053 96.1139 212.511 97.4992 206.959 98.8416L206.568 98.5778C206.499 96.8853 220.757 53.0581 222.278 49.8148C230.234 48.3635 238.243 47.2206 246.287 46.3886Z"/><path fill="#EA078D" transform="scale(0.703297 0.704434)" d="M274.807 43.8822L278.454 43.7161C276.214 52.3075 272.999 60.8206 270.551 69.3704C269.327 73.6446 268.08 78.022 266.616 82.2146C259.939 84.3034 251.744 86.2105 244.888 88.0174C243.787 88.31 241.986 88.956 241.1 88.1531C241.944 82.7186 252.776 48.8298 255.291 45.8981C257.072 43.8217 271.224 44.1366 274.807 43.8822Z"/><path fill="#EA078D" transform="scale(0.703297 0.704434)" d="M461.884 43.4495C467.572 43.8269 473.169 43.9514 478.888 44.451C476.529 53.3916 473.859 62.2476 470.885 71.0029C468.99 71.3404 457.163 70.7257 454.324 70.7086C456.504 61.1644 459.948 52.1051 461.884 43.4495Z"/><path fill="#EA078D" transform="scale(0.703297 0.704434)" d="M439.974 42.8751C445.03 43.0217 450.569 43.2336 455.572 43.7992C455.181 45.5668 447.901 70.3153 447.815 70.4418C442.074 70.5087 437.397 70.8102 431.633 70.3887C432.795 63.6095 437.646 50.0002 439.974 42.8751Z"/><path fill="#92457A" transform="scale(0.703297 0.704434)" d="M391.701 145.633L391.968 145.887C389.073 147.484 352.009 153.51 350.881 152.876L351.018 152.068C351.574 150.327 352.091 148.203 352.579 146.412L356.109 149.671C368.245 148.569 379.231 146.373 391.701 145.633Z"/><path fill="#92457A" transform="scale(0.703297 0.704434)" d="M196.568 117.83L196.777 118.135C195.91 120.827 194.839 127.79 193.236 129.196L192.594 129.056L191.602 127.416C190.507 125.077 189.389 122.749 188.25 120.431C191.078 119.279 193.622 118.633 196.568 117.83Z"/><path fill="#92457A" transform="scale(0.703297 0.704434)" d="M601.946 154.185C603.716 156.925 598.621 163.787 596.878 166.01L596.656 165.403C597.591 162.59 600.51 156.866 601.946 154.185Z"/><path fill="#92457A" transform="scale(0.703297 0.704434)" d="M201.531 104.831C202.474 105.473 204.41 106.72 204.712 107.713L204.267 108.179C203.178 108.494 202.17 108.957 201.164 108.609C200.708 107.392 201.214 106.287 201.531 104.831Z"/><defs><linearGradient id="gradient_14" gradientUnits="userSpaceOnUse" x1="449.61774" y1="325.77838" x2="449.88461" y2="318.50211"><stop offset="0" stop-color="#AF2E60" stop-opacity="0"/><stop offset="1" stop-color="#BF213C" stop-opacity="0.0078431377"/></linearGradient></defs><path fill="url(#gradient_14)" transform="scale(0.703297 0.704434)" d="M459.72 318.245C463.429 317.977 463.102 320.628 464.927 323.423L464.536 324.333C462.434 324.498 458.498 321.285 454.871 322.429C456.229 324.087 458.043 323.585 460.138 323.527L460.139 323.826C454.34 324.418 455.579 324.517 449.715 323.258C446.19 322.501 438.214 327.355 434.374 324.015C442.616 322.362 452.457 322.172 459.72 318.245Z"/><path transform="scale(0.703297 0.704434)" d="M478.116 91.5481C481.202 91.6302 495.869 91.5502 497.591 92.3173L497.474 92.8879L498.123 93.5872L497.376 93.7923C495.582 92.608 488.855 93.0698 486.546 93.1525C484.201 93.0793 483.092 93.0872 480.828 93.7461C478.838 94.1355 481.361 93.1719 478.116 91.5481Z"/><path transform="scale(0.703297 0.704434)" d="M480.828 93.7461C483.092 93.0872 484.201 93.0793 486.546 93.1525C488.384 93.4669 491.719 93.336 492.86 93.7612L492.923 94.1402C488.095 94.4097 485.594 94.4335 480.828 93.7461Z"/><path transform="scale(0.703297 0.704434)" d="M486.546 93.1525C488.855 93.0698 495.582 92.608 497.376 93.7923C495.424 94.1487 494.887 94.2312 492.923 94.1402L492.86 93.7612C491.719 93.336 488.384 93.4669 486.546 93.1525Z"/></svg>